<svg width="89" height="102" viewBox="0 0 89 102" fill="none" xmlns="http://www.w3.org/2000/svg">
<path d="M79.4643 44.625H74.6964V30.2812C74.6964 13.5867 61.1478 0 44.5 0C27.8522 0 14.3036 13.5867 14.3036 30.2812V44.625H9.53571C4.27121 44.625 0 48.9082 0 54.1875V92.4375C0 97.7168 4.27121 102 9.53571 102H79.4643C84.7288 102 89 97.7168 89 92.4375V54.1875C89 48.9082 84.7288 44.625 79.4643 44.625ZM58.8036 44.625H30.1964V30.2812C30.1964 22.3723 36.6132 15.9375 44.5 15.9375C52.3868 15.9375 58.8036 22.3723 58.8036 30.2812V44.625Z" fill="#36D7C9"/>
</svg>
